<?xml version="1.0" standalone="no"?>
<!DOCTYPE svg PUBLIC "-//W3C//DTD SVG 1.1//EN" "http://www.w3.org/Graphics/SVG/1.1/DTD/svg11.dtd">
<svg width="100%" height="100%" viewBox="0 0 255 100" version="1.1" xmlns="http://www.w3.org/2000/svg" xmlns:xlink="http://www.w3.org/1999/xlink" xml:space="preserve" style="fill-rule:evenodd;clip-rule:evenodd;stroke-linejoin:round;stroke-miterlimit:1.41421;">
    <g>
        <path d="M33.741,32.119C34.318,32.696 35.243,32.937 35.897,32.284C36.229,31.952 36.417,31.642 36.456,30.964C36.464,28.982 37.239,27.121 38.641,25.719C40.051,24.31 41.925,23.533 43.918,23.533C45.895,23.533 47.758,24.299 49.165,25.689C50.564,27.105 51.33,28.968 51.331,30.945C51.33,35.049 47.999,38.39 43.899,38.407C43.221,38.446 42.91,38.634 42.579,38.966C41.926,39.619 42.168,40.545 42.745,41.122L50.176,48.553L57.608,41.122C59.169,39.561 61.54,39.488 63.007,40.956C63.797,41.746 64.176,42.626 64.236,43.809L64.237,43.867C64.237,45.248 64.775,46.546 65.751,47.522C66.728,48.498 68.025,49.036 69.406,49.036C70.774,49.036 72.065,48.505 73.04,47.542C73.994,46.577 74.524,45.287 74.524,43.917C74.524,41.068 72.205,38.75 69.355,38.749L69.295,38.748C68.112,38.688 67.233,38.309 66.443,37.519C64.975,36.052 65.048,33.68 66.608,32.12L74.098,24.63L56.568,7.101C52.941,3.473 47.059,3.473 43.432,7.101L26.077,24.456L33.741,32.119Z" style="fill:rgb(11,136,133);fill-rule:nonzero;"/>
        <path d="M68.229,33.741C67.653,34.318 67.411,35.243 68.064,35.897C68.396,36.229 68.706,36.417 69.384,36.456C73.485,36.473 76.815,39.813 76.815,43.917C76.815,45.894 76.05,47.757 74.66,49.164C73.244,50.563 71.381,51.329 69.404,51.329C65.3,51.329 61.959,47.998 61.942,43.899C61.903,43.22 61.715,42.91 61.383,42.578C60.73,41.925 59.804,42.167 59.227,42.744L51.796,50.176L55.984,54.363C57.545,55.923 57.617,58.296 56.149,59.762C55.36,60.552 54.479,60.931 53.297,60.991L53.238,60.993C50.387,60.993 48.069,63.311 48.069,66.16C48.069,67.53 48.6,68.821 49.563,69.795C50.528,70.749 51.818,71.279 53.188,71.278C54.569,71.278 55.866,70.742 56.842,69.765C57.818,68.788 58.356,67.491 58.356,66.11L58.357,66.051C58.418,64.868 58.796,63.989 59.586,63.199C61.053,61.731 63.425,61.803 64.984,63.364L75.545,73.924L92.899,56.57C96.527,52.943 96.527,47.061 92.899,43.434L75.718,26.251L68.229,33.741Z" style="fill:rgb(11,136,133);fill-rule:nonzero;"/>
        <path d="M32.351,66.375C32.928,65.799 33.169,64.873 32.516,64.22C32.185,63.888 31.874,63.7 31.196,63.661C27.095,63.643 23.765,60.303 23.765,56.199C23.765,54.222 24.532,52.358 25.921,50.953C27.337,49.553 29.2,48.787 31.177,48.787C33.17,48.787 35.044,49.563 36.453,50.973C37.855,52.374 38.631,54.237 38.639,56.218C38.677,56.897 38.866,57.207 39.197,57.538C39.85,58.191 40.777,57.949 41.353,57.372L48.552,50.173L41.121,42.741C39.56,41.181 39.487,38.809 40.955,37.342C41.745,36.552 42.624,36.173 43.808,36.113L43.866,36.112C46.717,36.112 49.035,33.793 49.035,30.944C49.035,29.575 48.504,28.284 47.541,27.31C46.577,26.357 45.286,25.826 43.916,25.826C42.536,25.826 41.238,26.364 40.261,27.34C39.285,28.316 38.748,29.613 38.748,30.994L38.746,31.053C38.686,32.236 38.308,33.115 37.517,33.906C36.05,35.373 33.678,35.3 32.118,33.74L24.455,26.077L7.101,43.432C3.473,47.059 3.473,52.941 7.101,56.568L24.629,74.096L32.351,66.375Z" style="fill:rgb(11,136,133);fill-rule:nonzero;"/>
        <path d="M63.363,64.985C62.786,64.408 61.86,64.166 61.207,64.82C60.876,65.151 60.687,65.462 60.648,66.139C60.64,68.121 59.865,69.983 58.463,71.384C57.053,72.794 55.18,73.571 53.187,73.571C51.209,73.571 49.347,72.805 47.94,71.415C46.541,69.999 45.774,68.137 45.774,66.158C45.774,62.054 49.105,58.714 53.206,58.697C53.884,58.659 54.194,58.47 54.525,58.139C55.179,57.486 54.936,56.559 54.36,55.983L50.172,51.795L42.973,58.994C41.413,60.555 39.04,60.628 37.573,59.159C36.783,58.37 36.405,57.49 36.345,56.307L36.343,56.248C36.343,54.867 35.806,53.569 34.829,52.593C33.853,51.617 32.555,51.079 31.175,51.079C29.806,51.079 28.515,51.609 27.541,52.572C26.588,53.537 26.058,54.828 26.058,56.197C26.058,59.047 28.376,61.366 31.226,61.366L31.285,61.367C32.468,61.428 33.347,61.806 34.137,62.596C35.604,64.064 35.532,66.435 33.972,67.995L26.25,75.717L43.431,92.898C47.058,96.525 52.94,96.525 56.567,92.898L73.921,75.544L63.363,64.985Z" style="fill:rgb(11,136,133);fill-rule:nonzero;"/>
        <g transform="matrix(1.69291,0,0,1.69291,-105.546,-10.0933)">
            <text x="126.188px" y="27.339px" style="font-family:'HelveticaNeue-Medium';font-size:11.814px;fill:rgb(121,121,121);">dokku</text>
        </g>
        <g transform="matrix(3.69176,0,0,3.69176,-361.176,-144.52)">
            <text x="126.584px" y="56.977px" style="font-family:'HelveticaNeue-Medium';font-size:12px;fill:rgb(11,136,133);">r<tspan x="130.592px 137.264px " y="56.977px 56.977px ">eq</tspan>uir<tspan x="158.384px " y="56.977px ">e</tspan></text>
        </g>
    </g>
</svg>
